<svg width="25" height="24" viewBox="0 0 25 24" fill="none" xmlns="http://www.w3.org/2000/svg">
<path fill-rule="evenodd" clip-rule="evenodd" d="M10.3678 2.25C6.08759 2.25 2.6178 5.71979 2.6178 10C2.6178 14.2802 6.08759 17.75 10.3678 17.75C12.2378 17.75 13.9531 17.0877 15.292 15.9848L20.8375 21.5303L20.9216 21.6029C21.2152 21.8208 21.6319 21.7966 21.8981 21.5303C22.191 21.2374 22.191 20.7626 21.8981 20.4697L16.3526 14.9242C17.4555 13.5853 18.1178 11.87 18.1178 10C18.1178 5.71979 14.648 2.25 10.3678 2.25ZM10.3678 3.75C13.8196 3.75 16.6178 6.54822 16.6178 10C16.6178 13.4518 13.8196 16.25 10.3678 16.25C6.91602 16.25 4.1178 13.4518 4.1178 10C4.1178 6.54822 6.91602 3.75 10.3678 3.75Z" fill="#111111"/>
</svg>
